<mxfile host="app.diagrams.net" modified="2022-03-17T07:04:45.081Z" agent="5.0 (Windows NT 10.0; Win64; x64) AppleWebKit/537.36 (KHTML, like Gecko) Chrome/99.0.4844.51 Safari/537.36" etag="r0boLh-zCOUDFTklqQLG" version="17.0.0" type="github" pages="2">
  <diagram id="H2oaJsLFpcjXEO4kf1u9" name="Page-1">
    <mxGraphModel dx="1422" dy="762" grid="0" gridSize="10" guides="1" tooltips="1" connect="1" arrows="1" fold="1" page="1" pageScale="1" pageWidth="1169" pageHeight="827" math="0" shadow="0">
      <root>
        <mxCell id="0" />
        <mxCell id="1" parent="0" />
        <mxCell id="XjBkIVBHSxNP_NqZq9ar-3" style="edgeStyle=orthogonalEdgeStyle;rounded=0;orthogonalLoop=1;jettySize=auto;html=1;exitX=0.5;exitY=1;exitDx=0;exitDy=0;" edge="1" parent="1" source="XjBkIVBHSxNP_NqZq9ar-1" target="XjBkIVBHSxNP_NqZq9ar-2">
          <mxGeometry relative="1" as="geometry" />
        </mxCell>
        <mxCell id="XjBkIVBHSxNP_NqZq9ar-1" value="采集各种人类表情图片" style="rounded=1;whiteSpace=wrap;html=1;" vertex="1" parent="1">
          <mxGeometry x="484" y="44" width="120" height="60" as="geometry" />
        </mxCell>
        <mxCell id="XjBkIVBHSxNP_NqZq9ar-5" style="edgeStyle=orthogonalEdgeStyle;rounded=0;orthogonalLoop=1;jettySize=auto;html=1;exitX=0.5;exitY=1;exitDx=0;exitDy=0;" edge="1" parent="1" source="XjBkIVBHSxNP_NqZq9ar-2" target="XjBkIVBHSxNP_NqZq9ar-4">
          <mxGeometry relative="1" as="geometry" />
        </mxCell>
        <mxCell id="XjBkIVBHSxNP_NqZq9ar-2" value="人工标识图片表情数据" style="rounded=1;whiteSpace=wrap;html=1;" vertex="1" parent="1">
          <mxGeometry x="484" y="153" width="120" height="60" as="geometry" />
        </mxCell>
        <mxCell id="XjBkIVBHSxNP_NqZq9ar-7" style="edgeStyle=orthogonalEdgeStyle;rounded=0;orthogonalLoop=1;jettySize=auto;html=1;exitX=0.5;exitY=1;exitDx=0;exitDy=0;" edge="1" parent="1" source="XjBkIVBHSxNP_NqZq9ar-4" target="XjBkIVBHSxNP_NqZq9ar-6">
          <mxGeometry relative="1" as="geometry" />
        </mxCell>
        <mxCell id="XjBkIVBHSxNP_NqZq9ar-4" value="服务器通过神经网络训练表情网络" style="rounded=1;whiteSpace=wrap;html=1;" vertex="1" parent="1">
          <mxGeometry x="484" y="262" width="120" height="60" as="geometry" />
        </mxCell>
        <mxCell id="XjBkIVBHSxNP_NqZq9ar-6" value="服务器得到一个可以判别人类表情的网络" style="rounded=1;whiteSpace=wrap;html=1;" vertex="1" parent="1">
          <mxGeometry x="484" y="381" width="120" height="60" as="geometry" />
        </mxCell>
      </root>
    </mxGraphModel>
  </diagram>
  <diagram id="rMYiVqVGv2NKfCt1jEHr" name="Page-2">
    <mxGraphModel dx="1422" dy="762" grid="0" gridSize="10" guides="1" tooltips="1" connect="1" arrows="1" fold="1" page="1" pageScale="1" pageWidth="1169" pageHeight="827" math="0" shadow="0">
      <root>
        <mxCell id="3dCX12fF-8VU9zBZJTtP-0" />
        <mxCell id="3dCX12fF-8VU9zBZJTtP-1" parent="3dCX12fF-8VU9zBZJTtP-0" />
        <mxCell id="3dCX12fF-8VU9zBZJTtP-2" value="客户端上传视频流到服务器" style="rounded=1;whiteSpace=wrap;html=1;" vertex="1" parent="3dCX12fF-8VU9zBZJTtP-1">
          <mxGeometry x="351" y="45" width="120" height="60" as="geometry" />
        </mxCell>
        <mxCell id="3dCX12fF-8VU9zBZJTtP-3" value="服务器将视频流转换为图片" style="rounded=1;whiteSpace=wrap;html=1;" vertex="1" parent="3dCX12fF-8VU9zBZJTtP-1">
          <mxGeometry x="351" y="158" width="120" height="60" as="geometry" />
        </mxCell>
        <mxCell id="3dCX12fF-8VU9zBZJTtP-4" value="服务器将视频流转换为图片" style="rounded=1;whiteSpace=wrap;html=1;" vertex="1" parent="3dCX12fF-8VU9zBZJTtP-1">
          <mxGeometry x="354" y="263" width="120" height="60" as="geometry" />
        </mxCell>
      </root>
    </mxGraphModel>
  </diagram>
</mxfile>
